<mxfile host="app.diagrams.net" agent="Mozilla/5.0 (Windows NT 10.0; Win64; x64) AppleWebKit/537.36 (KHTML, like Gecko) Chrome/131.0.0.0 Safari/537.36" version="26.0.4">
  <diagram id="C5RBs43oDa-KdzZeNtuy" name="Page-1">
    <mxGraphModel dx="3267" dy="1160" grid="0" gridSize="10" guides="1" tooltips="1" connect="1" arrows="1" fold="1" page="0" pageScale="1" pageWidth="827" pageHeight="1169" math="0" shadow="0">
      <root>
        <mxCell id="WIyWlLk6GJQsqaUBKTNV-0" />
        <mxCell id="WIyWlLk6GJQsqaUBKTNV-1" parent="WIyWlLk6GJQsqaUBKTNV-0" />
        <mxCell id="tdoXhxOALk2-wj0xU1d--5" style="edgeStyle=orthogonalEdgeStyle;rounded=0;orthogonalLoop=1;jettySize=auto;html=1;endArrow=none;endFill=0;strokeWidth=2;fontSize=14;" parent="WIyWlLk6GJQsqaUBKTNV-1" source="zkfFHV4jXpPFQw0GAbJ--0" edge="1">
          <mxGeometry relative="1" as="geometry">
            <mxPoint x="372" y="667" as="targetPoint" />
          </mxGeometry>
        </mxCell>
        <mxCell id="zkfFHV4jXpPFQw0GAbJ--0" value="Person" style="swimlane;fontStyle=3;align=center;verticalAlign=top;childLayout=stackLayout;horizontal=1;startSize=26;horizontalStack=0;resizeParent=1;resizeLast=0;collapsible=1;marginBottom=0;rounded=0;shadow=0;strokeWidth=1;fillColor=#FFDC2E;fontColor=#000000;fontSize=14;" parent="WIyWlLk6GJQsqaUBKTNV-1" vertex="1">
          <mxGeometry x="292" y="418" width="160" height="166" as="geometry">
            <mxRectangle x="230" y="140" width="160" height="26" as="alternateBounds" />
          </mxGeometry>
        </mxCell>
        <mxCell id="zkfFHV4jXpPFQw0GAbJ--1" value="Name:&#xa; F_Name&#xa; L_Name" style="text;align=left;verticalAlign=top;spacingLeft=4;spacingRight=4;overflow=hidden;rotatable=0;points=[[0,0.5],[1,0.5]];portConstraint=eastwest;fontStyle=1;fontSize=14;" parent="zkfFHV4jXpPFQw0GAbJ--0" vertex="1">
          <mxGeometry y="26" width="160" height="54" as="geometry" />
        </mxCell>
        <mxCell id="zkfFHV4jXpPFQw0GAbJ--2" value="ssn" style="text;align=left;verticalAlign=top;spacingLeft=4;spacingRight=4;overflow=hidden;rotatable=0;points=[[0,0.5],[1,0.5]];portConstraint=eastwest;rounded=0;shadow=0;html=0;fontStyle=1;fontSize=14;" parent="zkfFHV4jXpPFQw0GAbJ--0" vertex="1">
          <mxGeometry y="80" width="160" height="40" as="geometry" />
        </mxCell>
        <mxCell id="zkfFHV4jXpPFQw0GAbJ--4" value="" style="line;html=1;strokeWidth=1;align=left;verticalAlign=middle;spacingTop=-1;spacingLeft=3;spacingRight=3;rotatable=0;labelPosition=right;points=[];portConstraint=eastwest;fontStyle=1;fontSize=14;" parent="zkfFHV4jXpPFQw0GAbJ--0" vertex="1">
          <mxGeometry y="120" width="160" height="8" as="geometry" />
        </mxCell>
        <mxCell id="zkfFHV4jXpPFQw0GAbJ--5" value="                  ......" style="text;align=left;verticalAlign=top;spacingLeft=4;spacingRight=4;overflow=hidden;rotatable=0;points=[[0,0.5],[1,0.5]];portConstraint=eastwest;fontStyle=1;fontSize=14;" parent="zkfFHV4jXpPFQw0GAbJ--0" vertex="1">
          <mxGeometry y="128" width="160" height="26" as="geometry" />
        </mxCell>
        <mxCell id="tdoXhxOALk2-wj0xU1d--0" value="Employee" style="swimlane;fontStyle=3;align=center;verticalAlign=top;childLayout=stackLayout;horizontal=1;startSize=26;horizontalStack=0;resizeParent=1;resizeLast=0;collapsible=1;marginBottom=0;rounded=0;shadow=0;strokeWidth=1;fillColor=#FFDC2E;fontColor=#000000;fontSize=14;" parent="WIyWlLk6GJQsqaUBKTNV-1" vertex="1">
          <mxGeometry x="455" y="743" width="160" height="209" as="geometry">
            <mxRectangle x="230" y="140" width="160" height="26" as="alternateBounds" />
          </mxGeometry>
        </mxCell>
        <mxCell id="tdoXhxOALk2-wj0xU1d--1" value="Phone Number" style="text;align=left;verticalAlign=top;spacingLeft=4;spacingRight=4;overflow=hidden;rotatable=0;points=[[0,0.5],[1,0.5]];portConstraint=eastwest;fontStyle=1;fontSize=14;" parent="tdoXhxOALk2-wj0xU1d--0" vertex="1">
          <mxGeometry y="26" width="160" height="35" as="geometry" />
        </mxCell>
        <mxCell id="tdoXhxOALk2-wj0xU1d--23" value="Address" style="text;align=left;verticalAlign=top;spacingLeft=4;spacingRight=4;overflow=hidden;rotatable=0;points=[[0,0.5],[1,0.5]];portConstraint=eastwest;fontStyle=1;fontSize=14;" parent="tdoXhxOALk2-wj0xU1d--0" vertex="1">
          <mxGeometry y="61" width="160" height="35" as="geometry" />
        </mxCell>
        <mxCell id="tdoXhxOALk2-wj0xU1d--25" value="Email" style="text;align=left;verticalAlign=top;spacingLeft=4;spacingRight=4;overflow=hidden;rotatable=0;points=[[0,0.5],[1,0.5]];portConstraint=eastwest;fontStyle=1;fontSize=14;" parent="tdoXhxOALk2-wj0xU1d--0" vertex="1">
          <mxGeometry y="96" width="160" height="35" as="geometry" />
        </mxCell>
        <mxCell id="tdoXhxOALk2-wj0xU1d--26" value="Jop_Type" style="text;align=left;verticalAlign=top;spacingLeft=4;spacingRight=4;overflow=hidden;rotatable=0;points=[[0,0.5],[1,0.5]];portConstraint=eastwest;fontStyle=1;fontSize=14;" parent="tdoXhxOALk2-wj0xU1d--0" vertex="1">
          <mxGeometry y="131" width="160" height="35" as="geometry" />
        </mxCell>
        <mxCell id="tdoXhxOALk2-wj0xU1d--3" value="" style="line;html=1;strokeWidth=1;align=left;verticalAlign=middle;spacingTop=-1;spacingLeft=3;spacingRight=3;rotatable=0;labelPosition=right;points=[];portConstraint=eastwest;fontStyle=1;fontSize=14;" parent="tdoXhxOALk2-wj0xU1d--0" vertex="1">
          <mxGeometry y="166" width="160" height="8" as="geometry" />
        </mxCell>
        <mxCell id="tdoXhxOALk2-wj0xU1d--27" value="                  ....." style="text;align=left;verticalAlign=top;spacingLeft=4;spacingRight=4;overflow=hidden;rotatable=0;points=[[0,0.5],[1,0.5]];portConstraint=eastwest;fontStyle=1;fontSize=14;" parent="tdoXhxOALk2-wj0xU1d--0" vertex="1">
          <mxGeometry y="174" width="160" height="35" as="geometry" />
        </mxCell>
        <mxCell id="tdoXhxOALk2-wj0xU1d--9" style="edgeStyle=orthogonalEdgeStyle;rounded=0;orthogonalLoop=1;jettySize=auto;html=1;exitX=1;exitY=1;exitDx=0;exitDy=0;exitPerimeter=0;entryX=0.5;entryY=0;entryDx=0;entryDy=0;endArrow=none;endFill=0;strokeWidth=2;fontSize=14;" parent="WIyWlLk6GJQsqaUBKTNV-1" source="tdoXhxOALk2-wj0xU1d--8" target="tdoXhxOALk2-wj0xU1d--0" edge="1">
          <mxGeometry relative="1" as="geometry">
            <Array as="points">
              <mxPoint x="538" y="699" />
            </Array>
          </mxGeometry>
        </mxCell>
        <mxCell id="781rqBfedugUcJ3Brvml-24" style="edgeStyle=orthogonalEdgeStyle;rounded=0;orthogonalLoop=1;jettySize=auto;html=1;exitX=0;exitY=1;exitDx=0;exitDy=0;exitPerimeter=0;entryX=0.5;entryY=0;entryDx=0;entryDy=0;" parent="WIyWlLk6GJQsqaUBKTNV-1" source="tdoXhxOALk2-wj0xU1d--8" target="781rqBfedugUcJ3Brvml-20" edge="1">
          <mxGeometry relative="1" as="geometry" />
        </mxCell>
        <mxCell id="tdoXhxOALk2-wj0xU1d--8" value="" style="verticalLabelPosition=bottom;verticalAlign=top;html=1;shape=mxgraph.basic.acute_triangle;dx=0.5;strokeWidth=2;fontSize=14;" parent="WIyWlLk6GJQsqaUBKTNV-1" vertex="1">
          <mxGeometry x="336" y="668" width="72" height="31" as="geometry" />
        </mxCell>
        <mxCell id="tdoXhxOALk2-wj0xU1d--10" value="Waiter" style="swimlane;fontStyle=3;align=center;verticalAlign=top;childLayout=stackLayout;horizontal=1;startSize=26;horizontalStack=0;resizeParent=1;resizeLast=0;collapsible=1;marginBottom=0;rounded=0;shadow=0;strokeWidth=1;fillColor=#FFDC2E;fontColor=#000000;fontSize=14;" parent="WIyWlLk6GJQsqaUBKTNV-1" vertex="1">
          <mxGeometry x="168" y="1101" width="160" height="132" as="geometry">
            <mxRectangle x="230" y="140" width="160" height="26" as="alternateBounds" />
          </mxGeometry>
        </mxCell>
        <mxCell id="tdoXhxOALk2-wj0xU1d--13" value="" style="line;html=1;strokeWidth=1;align=left;verticalAlign=middle;spacingTop=-1;spacingLeft=3;spacingRight=3;rotatable=0;labelPosition=right;points=[];portConstraint=eastwest;fontStyle=1;fontSize=14;" parent="tdoXhxOALk2-wj0xU1d--10" vertex="1">
          <mxGeometry y="26" width="160" height="8" as="geometry" />
        </mxCell>
        <mxCell id="tdoXhxOALk2-wj0xU1d--14" value="                  ......" style="text;align=left;verticalAlign=top;spacingLeft=4;spacingRight=4;overflow=hidden;rotatable=0;points=[[0,0.5],[1,0.5]];portConstraint=eastwest;fontStyle=1;fontSize=14;" parent="tdoXhxOALk2-wj0xU1d--10" vertex="1">
          <mxGeometry y="34" width="160" height="26" as="geometry" />
        </mxCell>
        <mxCell id="tdoXhxOALk2-wj0xU1d--22" style="edgeStyle=orthogonalEdgeStyle;rounded=0;orthogonalLoop=1;jettySize=auto;html=1;exitX=0.5;exitY=0;exitDx=0;exitDy=0;strokeWidth=2;endArrow=none;endFill=0;fontSize=14;" parent="WIyWlLk6GJQsqaUBKTNV-1" source="tdoXhxOALk2-wj0xU1d--17" edge="1">
          <mxGeometry relative="1" as="geometry">
            <mxPoint x="409" y="697" as="targetPoint" />
            <Array as="points">
              <mxPoint x="799" y="699" />
              <mxPoint x="409" y="699" />
            </Array>
          </mxGeometry>
        </mxCell>
        <mxCell id="tdoXhxOALk2-wj0xU1d--149" style="edgeStyle=orthogonalEdgeStyle;rounded=0;orthogonalLoop=1;jettySize=auto;html=1;exitX=0.5;exitY=1;exitDx=0;exitDy=0;endArrow=none;endFill=0;strokeWidth=2;strokeColor=#FF3333;" parent="WIyWlLk6GJQsqaUBKTNV-1" source="tdoXhxOALk2-wj0xU1d--17" target="tdoXhxOALk2-wj0xU1d--29" edge="1">
          <mxGeometry relative="1" as="geometry" />
        </mxCell>
        <mxCell id="tdoXhxOALk2-wj0xU1d--17" value="Customer" style="swimlane;fontStyle=3;align=center;verticalAlign=top;childLayout=stackLayout;horizontal=1;startSize=26;horizontalStack=0;resizeParent=1;resizeLast=0;collapsible=1;marginBottom=0;rounded=0;shadow=0;strokeWidth=1;fillColor=#FFDC2E;fontColor=#000000;fontSize=14;" parent="WIyWlLk6GJQsqaUBKTNV-1" vertex="1">
          <mxGeometry x="718" y="743" width="160" height="115" as="geometry">
            <mxRectangle x="230" y="140" width="160" height="26" as="alternateBounds" />
          </mxGeometry>
        </mxCell>
        <mxCell id="tdoXhxOALk2-wj0xU1d--19" value="                  ......" style="text;align=left;verticalAlign=top;spacingLeft=4;spacingRight=4;overflow=hidden;rotatable=0;points=[[0,0.5],[1,0.5]];portConstraint=eastwest;rounded=0;shadow=0;html=0;fontStyle=1;fontSize=14;" parent="tdoXhxOALk2-wj0xU1d--17" vertex="1">
          <mxGeometry y="26" width="160" height="40" as="geometry" />
        </mxCell>
        <mxCell id="tdoXhxOALk2-wj0xU1d--20" value="" style="line;html=1;strokeWidth=1;align=left;verticalAlign=middle;spacingTop=-1;spacingLeft=3;spacingRight=3;rotatable=0;labelPosition=right;points=[];portConstraint=eastwest;fontStyle=1;fontSize=14;" parent="tdoXhxOALk2-wj0xU1d--17" vertex="1">
          <mxGeometry y="66" width="160" height="8" as="geometry" />
        </mxCell>
        <mxCell id="tdoXhxOALk2-wj0xU1d--21" value="                  ......" style="text;align=left;verticalAlign=top;spacingLeft=4;spacingRight=4;overflow=hidden;rotatable=0;points=[[0,0.5],[1,0.5]];portConstraint=eastwest;fontStyle=1;fontSize=14;" parent="tdoXhxOALk2-wj0xU1d--17" vertex="1">
          <mxGeometry y="74" width="160" height="26" as="geometry" />
        </mxCell>
        <mxCell id="tdoXhxOALk2-wj0xU1d--29" value="Reservation" style="swimlane;fontStyle=3;align=center;verticalAlign=top;childLayout=stackLayout;horizontal=1;startSize=26;horizontalStack=0;resizeParent=1;resizeLast=0;collapsible=1;marginBottom=0;rounded=0;shadow=0;strokeWidth=1;fillColor=#FFDC2E;fontColor=#000000;fontSize=14;" parent="WIyWlLk6GJQsqaUBKTNV-1" vertex="1">
          <mxGeometry x="718" y="1012" width="160" height="266" as="geometry">
            <mxRectangle x="230" y="140" width="160" height="26" as="alternateBounds" />
          </mxGeometry>
        </mxCell>
        <mxCell id="tdoXhxOALk2-wj0xU1d--30" value="Number" style="text;align=left;verticalAlign=top;spacingLeft=4;spacingRight=4;overflow=hidden;rotatable=0;points=[[0,0.5],[1,0.5]];portConstraint=eastwest;fontStyle=1;fontSize=14;" parent="tdoXhxOALk2-wj0xU1d--29" vertex="1">
          <mxGeometry y="26" width="160" height="35" as="geometry" />
        </mxCell>
        <mxCell id="tdoXhxOALk2-wj0xU1d--31" value="Status" style="text;align=left;verticalAlign=top;spacingLeft=4;spacingRight=4;overflow=hidden;rotatable=0;points=[[0,0.5],[1,0.5]];portConstraint=eastwest;fontStyle=1;fontSize=14;" parent="tdoXhxOALk2-wj0xU1d--29" vertex="1">
          <mxGeometry y="61" width="160" height="35" as="geometry" />
        </mxCell>
        <mxCell id="tdoXhxOALk2-wj0xU1d--32" value="Number of people" style="text;align=left;verticalAlign=top;spacingLeft=4;spacingRight=4;overflow=hidden;rotatable=0;points=[[0,0.5],[1,0.5]];portConstraint=eastwest;fontStyle=1;fontSize=14;" parent="tdoXhxOALk2-wj0xU1d--29" vertex="1">
          <mxGeometry y="96" width="160" height="35" as="geometry" />
        </mxCell>
        <mxCell id="tdoXhxOALk2-wj0xU1d--33" value="Phone Number" style="text;align=left;verticalAlign=top;spacingLeft=4;spacingRight=4;overflow=hidden;rotatable=0;points=[[0,0.5],[1,0.5]];portConstraint=eastwest;fontStyle=1;fontSize=14;" parent="tdoXhxOALk2-wj0xU1d--29" vertex="1">
          <mxGeometry y="131" width="160" height="35" as="geometry" />
        </mxCell>
        <mxCell id="781rqBfedugUcJ3Brvml-18" value="start_time" style="text;align=left;verticalAlign=top;spacingLeft=4;spacingRight=4;overflow=hidden;rotatable=0;points=[[0,0.5],[1,0.5]];portConstraint=eastwest;fontStyle=1;fontSize=14;" parent="tdoXhxOALk2-wj0xU1d--29" vertex="1">
          <mxGeometry y="166" width="160" height="35" as="geometry" />
        </mxCell>
        <mxCell id="781rqBfedugUcJ3Brvml-19" value="end_time" style="text;align=left;verticalAlign=top;spacingLeft=4;spacingRight=4;overflow=hidden;rotatable=0;points=[[0,0.5],[1,0.5]];portConstraint=eastwest;fontStyle=1;fontSize=14;" parent="tdoXhxOALk2-wj0xU1d--29" vertex="1">
          <mxGeometry y="201" width="160" height="35" as="geometry" />
        </mxCell>
        <mxCell id="tdoXhxOALk2-wj0xU1d--34" value="" style="line;html=1;strokeWidth=1;align=left;verticalAlign=middle;spacingTop=-1;spacingLeft=3;spacingRight=3;rotatable=0;labelPosition=right;points=[];portConstraint=eastwest;fontStyle=1;fontSize=14;" parent="tdoXhxOALk2-wj0xU1d--29" vertex="1">
          <mxGeometry y="236" width="160" height="8" as="geometry" />
        </mxCell>
        <mxCell id="781rqBfedugUcJ3Brvml-14" style="edgeStyle=orthogonalEdgeStyle;rounded=0;orthogonalLoop=1;jettySize=auto;html=1;exitX=0.5;exitY=1;exitDx=0;exitDy=0;entryX=0.5;entryY=1;entryDx=0;entryDy=0;strokeWidth=2;strokeColor=#FF3333;" parent="WIyWlLk6GJQsqaUBKTNV-1" source="tdoXhxOALk2-wj0xU1d--36" target="tdoXhxOALk2-wj0xU1d--10" edge="1">
          <mxGeometry relative="1" as="geometry">
            <Array as="points">
              <mxPoint x="1281" y="1021" />
              <mxPoint x="1281" y="1352" />
              <mxPoint x="248" y="1352" />
            </Array>
          </mxGeometry>
        </mxCell>
        <mxCell id="tdoXhxOALk2-wj0xU1d--36" value="Table" style="swimlane;fontStyle=3;align=center;verticalAlign=top;childLayout=stackLayout;horizontal=1;startSize=26;horizontalStack=0;resizeParent=1;resizeLast=0;collapsible=1;marginBottom=0;rounded=0;shadow=0;strokeWidth=1;fillColor=#FFDC2E;fontColor=#000000;fontSize=14;" parent="WIyWlLk6GJQsqaUBKTNV-1" vertex="1">
          <mxGeometry x="1289" y="844" width="160" height="177" as="geometry">
            <mxRectangle x="230" y="140" width="160" height="26" as="alternateBounds" />
          </mxGeometry>
        </mxCell>
        <mxCell id="tdoXhxOALk2-wj0xU1d--37" value="Number" style="text;align=left;verticalAlign=top;spacingLeft=4;spacingRight=4;overflow=hidden;rotatable=0;points=[[0,0.5],[1,0.5]];portConstraint=eastwest;fontStyle=1;fontSize=14;" parent="tdoXhxOALk2-wj0xU1d--36" vertex="1">
          <mxGeometry y="26" width="160" height="35" as="geometry" />
        </mxCell>
        <mxCell id="tdoXhxOALk2-wj0xU1d--38" value="Capacity" style="text;align=left;verticalAlign=top;spacingLeft=4;spacingRight=4;overflow=hidden;rotatable=0;points=[[0,0.5],[1,0.5]];portConstraint=eastwest;fontStyle=1;fontSize=14;" parent="tdoXhxOALk2-wj0xU1d--36" vertex="1">
          <mxGeometry y="61" width="160" height="35" as="geometry" />
        </mxCell>
        <mxCell id="tdoXhxOALk2-wj0xU1d--39" value="Status" style="text;align=left;verticalAlign=top;spacingLeft=4;spacingRight=4;overflow=hidden;rotatable=0;points=[[0,0.5],[1,0.5]];portConstraint=eastwest;fontStyle=1;fontSize=14;" parent="tdoXhxOALk2-wj0xU1d--36" vertex="1">
          <mxGeometry y="96" width="160" height="35" as="geometry" />
        </mxCell>
        <mxCell id="tdoXhxOALk2-wj0xU1d--41" value="" style="line;html=1;strokeWidth=1;align=left;verticalAlign=middle;spacingTop=-1;spacingLeft=3;spacingRight=3;rotatable=0;labelPosition=right;points=[];portConstraint=eastwest;fontStyle=1;fontSize=14;" parent="tdoXhxOALk2-wj0xU1d--36" vertex="1">
          <mxGeometry y="131" width="160" height="8" as="geometry" />
        </mxCell>
        <mxCell id="tdoXhxOALk2-wj0xU1d--42" value="                  ....." style="text;align=left;verticalAlign=top;spacingLeft=4;spacingRight=4;overflow=hidden;rotatable=0;points=[[0,0.5],[1,0.5]];portConstraint=eastwest;fontStyle=1;fontSize=14;" parent="tdoXhxOALk2-wj0xU1d--36" vertex="1">
          <mxGeometry y="139" width="160" height="35" as="geometry" />
        </mxCell>
        <mxCell id="tdoXhxOALk2-wj0xU1d--43" value="Menu" style="swimlane;fontStyle=3;align=center;verticalAlign=top;childLayout=stackLayout;horizontal=1;startSize=26;horizontalStack=0;resizeParent=1;resizeLast=0;collapsible=1;marginBottom=0;rounded=0;shadow=0;strokeWidth=1;fillColor=#FFDC2E;fontColor=#000000;fontSize=14;" parent="WIyWlLk6GJQsqaUBKTNV-1" vertex="1">
          <mxGeometry x="1496" y="807" width="160" height="141" as="geometry">
            <mxRectangle x="230" y="140" width="160" height="26" as="alternateBounds" />
          </mxGeometry>
        </mxCell>
        <mxCell id="tdoXhxOALk2-wj0xU1d--45" value="name" style="text;align=left;verticalAlign=top;spacingLeft=4;spacingRight=4;overflow=hidden;rotatable=0;points=[[0,0.5],[1,0.5]];portConstraint=eastwest;fontStyle=1;fontSize=14;" parent="tdoXhxOALk2-wj0xU1d--43" vertex="1">
          <mxGeometry y="26" width="160" height="35" as="geometry" />
        </mxCell>
        <mxCell id="tdoXhxOALk2-wj0xU1d--48" value="" style="line;html=1;strokeWidth=1;align=left;verticalAlign=middle;spacingTop=-1;spacingLeft=3;spacingRight=3;rotatable=0;labelPosition=right;points=[];portConstraint=eastwest;fontStyle=1;fontSize=14;" parent="tdoXhxOALk2-wj0xU1d--43" vertex="1">
          <mxGeometry y="61" width="160" height="8" as="geometry" />
        </mxCell>
        <mxCell id="tdoXhxOALk2-wj0xU1d--49" value="                  ....." style="text;align=left;verticalAlign=top;spacingLeft=4;spacingRight=4;overflow=hidden;rotatable=0;points=[[0,0.5],[1,0.5]];portConstraint=eastwest;fontStyle=1;fontSize=14;" parent="tdoXhxOALk2-wj0xU1d--43" vertex="1">
          <mxGeometry y="69" width="160" height="35" as="geometry" />
        </mxCell>
        <mxCell id="tdoXhxOALk2-wj0xU1d--50" value="Invoices" style="swimlane;fontStyle=3;align=center;verticalAlign=top;childLayout=stackLayout;horizontal=1;startSize=26;horizontalStack=0;resizeParent=1;resizeLast=0;collapsible=1;marginBottom=0;rounded=0;shadow=0;strokeWidth=1;fillColor=#FFDC2E;fontColor=#000000;fontSize=14;" parent="WIyWlLk6GJQsqaUBKTNV-1" vertex="1">
          <mxGeometry x="1521" y="393" width="160" height="174" as="geometry">
            <mxRectangle x="230" y="140" width="160" height="26" as="alternateBounds" />
          </mxGeometry>
        </mxCell>
        <mxCell id="tdoXhxOALk2-wj0xU1d--51" value="Number" style="text;align=left;verticalAlign=top;spacingLeft=4;spacingRight=4;overflow=hidden;rotatable=0;points=[[0,0.5],[1,0.5]];portConstraint=eastwest;fontStyle=1;fontSize=14;" parent="tdoXhxOALk2-wj0xU1d--50" vertex="1">
          <mxGeometry y="26" width="160" height="35" as="geometry" />
        </mxCell>
        <mxCell id="tdoXhxOALk2-wj0xU1d--52" value="Status" style="text;align=left;verticalAlign=top;spacingLeft=4;spacingRight=4;overflow=hidden;rotatable=0;points=[[0,0.5],[1,0.5]];portConstraint=eastwest;fontStyle=1;fontSize=14;" parent="tdoXhxOALk2-wj0xU1d--50" vertex="1">
          <mxGeometry y="61" width="160" height="35" as="geometry" />
        </mxCell>
        <mxCell id="tdoXhxOALk2-wj0xU1d--53" value="Calculation" style="text;align=left;verticalAlign=top;spacingLeft=4;spacingRight=4;overflow=hidden;rotatable=0;points=[[0,0.5],[1,0.5]];portConstraint=eastwest;fontStyle=1;fontSize=14;" parent="tdoXhxOALk2-wj0xU1d--50" vertex="1">
          <mxGeometry y="96" width="160" height="35" as="geometry" />
        </mxCell>
        <mxCell id="tdoXhxOALk2-wj0xU1d--54" value="" style="line;html=1;strokeWidth=1;align=left;verticalAlign=middle;spacingTop=-1;spacingLeft=3;spacingRight=3;rotatable=0;labelPosition=right;points=[];portConstraint=eastwest;fontStyle=1;fontSize=14;" parent="tdoXhxOALk2-wj0xU1d--50" vertex="1">
          <mxGeometry y="131" width="160" height="8" as="geometry" />
        </mxCell>
        <mxCell id="tdoXhxOALk2-wj0xU1d--55" value="                  ....." style="text;align=left;verticalAlign=top;spacingLeft=4;spacingRight=4;overflow=hidden;rotatable=0;points=[[0,0.5],[1,0.5]];portConstraint=eastwest;fontStyle=1;fontSize=14;" parent="tdoXhxOALk2-wj0xU1d--50" vertex="1">
          <mxGeometry y="139" width="160" height="35" as="geometry" />
        </mxCell>
        <mxCell id="tdoXhxOALk2-wj0xU1d--56" value="Dishes" style="swimlane;fontStyle=3;align=center;verticalAlign=top;childLayout=stackLayout;horizontal=1;startSize=26;horizontalStack=0;resizeParent=1;resizeLast=0;collapsible=1;marginBottom=0;rounded=0;shadow=0;strokeWidth=1;fillColor=#FFDC2E;fontColor=#000000;fontSize=14;" parent="WIyWlLk6GJQsqaUBKTNV-1" vertex="1">
          <mxGeometry x="1722" y="645" width="160" height="245" as="geometry">
            <mxRectangle x="230" y="140" width="160" height="26" as="alternateBounds" />
          </mxGeometry>
        </mxCell>
        <mxCell id="tdoXhxOALk2-wj0xU1d--62" value="Name" style="text;align=left;verticalAlign=top;spacingLeft=4;spacingRight=4;overflow=hidden;rotatable=0;points=[[0,0.5],[1,0.5]];portConstraint=eastwest;fontStyle=1;fontSize=14;" parent="tdoXhxOALk2-wj0xU1d--56" vertex="1">
          <mxGeometry y="26" width="160" height="35" as="geometry" />
        </mxCell>
        <mxCell id="tdoXhxOALk2-wj0xU1d--58" value="Amount" style="text;align=left;verticalAlign=top;spacingLeft=4;spacingRight=4;overflow=hidden;rotatable=0;points=[[0,0.5],[1,0.5]];portConstraint=eastwest;fontStyle=1;fontSize=14;" parent="tdoXhxOALk2-wj0xU1d--56" vertex="1">
          <mxGeometry y="61" width="160" height="35" as="geometry" />
        </mxCell>
        <mxCell id="tdoXhxOALk2-wj0xU1d--59" value="Description" style="text;align=left;verticalAlign=top;spacingLeft=4;spacingRight=4;overflow=hidden;rotatable=0;points=[[0,0.5],[1,0.5]];portConstraint=eastwest;fontStyle=1;fontSize=14;" parent="tdoXhxOALk2-wj0xU1d--56" vertex="1">
          <mxGeometry y="96" width="160" height="35" as="geometry" />
        </mxCell>
        <mxCell id="tdoXhxOALk2-wj0xU1d--63" value="Price" style="text;align=left;verticalAlign=top;spacingLeft=4;spacingRight=4;overflow=hidden;rotatable=0;points=[[0,0.5],[1,0.5]];portConstraint=eastwest;fontStyle=1;fontSize=14;" parent="tdoXhxOALk2-wj0xU1d--56" vertex="1">
          <mxGeometry y="131" width="160" height="35" as="geometry" />
        </mxCell>
        <mxCell id="tdoXhxOALk2-wj0xU1d--60" value="" style="line;html=1;strokeWidth=1;align=left;verticalAlign=middle;spacingTop=-1;spacingLeft=3;spacingRight=3;rotatable=0;labelPosition=right;points=[];portConstraint=eastwest;fontStyle=1;fontSize=14;" parent="tdoXhxOALk2-wj0xU1d--56" vertex="1">
          <mxGeometry y="166" width="160" height="8" as="geometry" />
        </mxCell>
        <mxCell id="tdoXhxOALk2-wj0xU1d--61" value="                  ....." style="text;align=left;verticalAlign=top;spacingLeft=4;spacingRight=4;overflow=hidden;rotatable=0;points=[[0,0.5],[1,0.5]];portConstraint=eastwest;fontStyle=1;fontSize=14;" parent="tdoXhxOALk2-wj0xU1d--56" vertex="1">
          <mxGeometry y="174" width="160" height="36" as="geometry" />
        </mxCell>
        <mxCell id="781rqBfedugUcJ3Brvml-11" style="edgeStyle=orthogonalEdgeStyle;rounded=0;orthogonalLoop=1;jettySize=auto;html=1;exitX=0.5;exitY=0;exitDx=0;exitDy=0;entryX=0;entryY=0.5;entryDx=0;entryDy=0;strokeWidth=2;strokeColor=#CC0000;endArrow=none;endFill=0;" parent="WIyWlLk6GJQsqaUBKTNV-1" source="tdoXhxOALk2-wj0xU1d--65" target="tdoXhxOALk2-wj0xU1d--14" edge="1">
          <mxGeometry relative="1" as="geometry">
            <Array as="points">
              <mxPoint x="1254" y="305" />
              <mxPoint x="148" y="305" />
              <mxPoint x="148" y="1216" />
              <mxPoint x="168" y="1216" />
            </Array>
          </mxGeometry>
        </mxCell>
        <mxCell id="tdoXhxOALk2-wj0xU1d--65" value="Order" style="swimlane;fontStyle=3;align=center;verticalAlign=top;childLayout=stackLayout;horizontal=1;startSize=26;horizontalStack=0;resizeParent=1;resizeLast=0;collapsible=1;marginBottom=0;rounded=0;shadow=0;strokeWidth=1;fillColor=#FFDC2E;fontColor=#000000;fontSize=14;" parent="WIyWlLk6GJQsqaUBKTNV-1" vertex="1">
          <mxGeometry x="1174" y="393" width="160" height="330" as="geometry">
            <mxRectangle x="230" y="140" width="160" height="26" as="alternateBounds" />
          </mxGeometry>
        </mxCell>
        <mxCell id="tdoXhxOALk2-wj0xU1d--66" value="id" style="text;align=left;verticalAlign=top;spacingLeft=4;spacingRight=4;overflow=hidden;rotatable=0;points=[[0,0.5],[1,0.5]];portConstraint=eastwest;fontStyle=1;fontSize=14;" parent="tdoXhxOALk2-wj0xU1d--65" vertex="1">
          <mxGeometry y="26" width="160" height="35" as="geometry" />
        </mxCell>
        <mxCell id="tdoXhxOALk2-wj0xU1d--67" value="payment_Type" style="text;align=left;verticalAlign=top;spacingLeft=4;spacingRight=4;overflow=hidden;rotatable=0;points=[[0,0.5],[1,0.5]];portConstraint=eastwest;fontStyle=1;fontSize=14;" parent="tdoXhxOALk2-wj0xU1d--65" vertex="1">
          <mxGeometry y="61" width="160" height="35" as="geometry" />
        </mxCell>
        <mxCell id="tdoXhxOALk2-wj0xU1d--68" value="Type" style="text;align=left;verticalAlign=top;spacingLeft=4;spacingRight=4;overflow=hidden;rotatable=0;points=[[0,0.5],[1,0.5]];portConstraint=eastwest;fontStyle=1;fontSize=14;" parent="tdoXhxOALk2-wj0xU1d--65" vertex="1">
          <mxGeometry y="96" width="160" height="35" as="geometry" />
        </mxCell>
        <mxCell id="tdoXhxOALk2-wj0xU1d--69" value="Date" style="text;align=left;verticalAlign=top;spacingLeft=4;spacingRight=4;overflow=hidden;rotatable=0;points=[[0,0.5],[1,0.5]];portConstraint=eastwest;fontStyle=1;fontSize=14;" parent="tdoXhxOALk2-wj0xU1d--65" vertex="1">
          <mxGeometry y="131" width="160" height="35" as="geometry" />
        </mxCell>
        <mxCell id="tdoXhxOALk2-wj0xU1d--70" value="Location" style="text;align=left;verticalAlign=top;spacingLeft=4;spacingRight=4;overflow=hidden;rotatable=0;points=[[0,0.5],[1,0.5]];portConstraint=eastwest;fontStyle=1;fontSize=14;" parent="tdoXhxOALk2-wj0xU1d--65" vertex="1">
          <mxGeometry y="166" width="160" height="35" as="geometry" />
        </mxCell>
        <mxCell id="781rqBfedugUcJ3Brvml-7" value="prepartion_time" style="text;align=left;verticalAlign=top;spacingLeft=4;spacingRight=4;overflow=hidden;rotatable=0;points=[[0,0.5],[1,0.5]];portConstraint=eastwest;fontStyle=1;fontSize=14;" parent="tdoXhxOALk2-wj0xU1d--65" vertex="1">
          <mxGeometry y="201" width="160" height="35" as="geometry" />
        </mxCell>
        <mxCell id="tdoXhxOALk2-wj0xU1d--71" value="" style="line;html=1;strokeWidth=1;align=left;verticalAlign=middle;spacingTop=-1;spacingLeft=3;spacingRight=3;rotatable=0;labelPosition=right;points=[];portConstraint=eastwest;fontStyle=1;fontSize=14;" parent="tdoXhxOALk2-wj0xU1d--65" vertex="1">
          <mxGeometry y="236" width="160" height="64" as="geometry" />
        </mxCell>
        <mxCell id="tdoXhxOALk2-wj0xU1d--72" value="                  ....." style="text;align=left;verticalAlign=top;spacingLeft=4;spacingRight=4;overflow=hidden;rotatable=0;points=[[0,0.5],[1,0.5]];portConstraint=eastwest;fontStyle=1;fontSize=14;" parent="tdoXhxOALk2-wj0xU1d--65" vertex="1">
          <mxGeometry y="300" width="160" height="9" as="geometry" />
        </mxCell>
        <mxCell id="tdoXhxOALk2-wj0xU1d--143" style="edgeStyle=orthogonalEdgeStyle;rounded=0;orthogonalLoop=1;jettySize=auto;html=1;strokeWidth=2;endArrow=none;endFill=0;strokeColor=#FF3333;" parent="WIyWlLk6GJQsqaUBKTNV-1" source="tdoXhxOALk2-wj0xU1d--72" target="tdoXhxOALk2-wj0xU1d--36" edge="1">
          <mxGeometry relative="1" as="geometry">
            <mxPoint x="1512.9999999999995" y="914" as="sourcePoint" />
          </mxGeometry>
        </mxCell>
        <mxCell id="tdoXhxOALk2-wj0xU1d--107" style="edgeStyle=orthogonalEdgeStyle;rounded=0;orthogonalLoop=1;jettySize=auto;html=1;exitX=0;exitY=0.5;exitDx=0;exitDy=0;entryX=0.75;entryY=0;entryDx=0;entryDy=0;strokeWidth=2;endArrow=none;endFill=0;strokeColor=#FF3333;fontSize=14;" parent="WIyWlLk6GJQsqaUBKTNV-1" source="tdoXhxOALk2-wj0xU1d--68" target="tdoXhxOALk2-wj0xU1d--17" edge="1">
          <mxGeometry relative="1" as="geometry" />
        </mxCell>
        <mxCell id="tdoXhxOALk2-wj0xU1d--110" value="&lt;b&gt;&lt;font style=&quot;font-size: 16px;&quot; color=&quot;#ff3333&quot;&gt;1...1&lt;/font&gt;&lt;/b&gt;" style="edgeLabel;html=1;align=center;verticalAlign=middle;resizable=0;points=[];fontSize=14;" parent="WIyWlLk6GJQsqaUBKTNV-1" vertex="1" connectable="0">
          <mxGeometry x="879.9950816309115" y="675.9979835458105" as="geometry">
            <mxPoint x="-19" y="47" as="offset" />
          </mxGeometry>
        </mxCell>
        <mxCell id="tdoXhxOALk2-wj0xU1d--111" value="&lt;b&gt;&lt;font style=&quot;font-size: 16px;&quot; color=&quot;#ff3333&quot;&gt;1...*&lt;/font&gt;&lt;/b&gt;" style="edgeLabel;html=1;align=center;verticalAlign=middle;resizable=0;points=[];fontSize=14;" parent="WIyWlLk6GJQsqaUBKTNV-1" vertex="1" connectable="0">
          <mxGeometry x="967.2850816309115" y="508.54798354581044" as="geometry">
            <mxPoint x="183" y="-17" as="offset" />
          </mxGeometry>
        </mxCell>
        <mxCell id="tdoXhxOALk2-wj0xU1d--124" style="edgeStyle=orthogonalEdgeStyle;rounded=0;orthogonalLoop=1;jettySize=auto;html=1;exitX=0;exitY=0.5;exitDx=0;exitDy=0;entryX=1;entryY=0.5;entryDx=0;entryDy=0;strokeWidth=2;strokeColor=#FF3333;endArrow=none;endFill=0;fontSize=14;" parent="WIyWlLk6GJQsqaUBKTNV-1" source="tdoXhxOALk2-wj0xU1d--51" target="tdoXhxOALk2-wj0xU1d--66" edge="1">
          <mxGeometry relative="1" as="geometry" />
        </mxCell>
        <mxCell id="tdoXhxOALk2-wj0xU1d--125" value="&lt;div style=&quot;text-align: center;&quot;&gt;&lt;span style=&quot;background-color: initial; text-wrap: nowrap;&quot;&gt;&lt;font color=&quot;#ff3333&quot;&gt;&lt;b&gt;1...1&lt;/b&gt;&lt;/font&gt;&lt;/span&gt;&lt;/div&gt;" style="text;whiteSpace=wrap;html=1;fontSize=16;" parent="WIyWlLk6GJQsqaUBKTNV-1" vertex="1">
          <mxGeometry x="1333.9957142857147" y="410.0057142857145" width="58" height="42" as="geometry" />
        </mxCell>
        <mxCell id="tdoXhxOALk2-wj0xU1d--126" value="&lt;b style=&quot;forced-color-adjust: none; border-color: rgb(0, 0, 0); color: rgb(240, 240, 240); font-family: Helvetica; font-style: normal; font-variant-ligatures: normal; font-variant-caps: normal; letter-spacing: normal; orphans: 2; text-align: center; text-indent: 0px; text-transform: none; widows: 2; word-spacing: 0px; -webkit-text-stroke-width: 0px; white-space: nowrap; text-decoration-thickness: initial; text-decoration-style: initial; text-decoration-color: initial;&quot;&gt;&lt;font color=&quot;#ff3333&quot; style=&quot;forced-color-adjust: none; border-color: rgb(0, 0, 0);&quot;&gt;1...*&lt;/font&gt;&lt;/b&gt;" style="text;whiteSpace=wrap;html=1;fontSize=16;" parent="WIyWlLk6GJQsqaUBKTNV-1" vertex="1">
          <mxGeometry x="1474.9985714285713" y="399.00285714285735" width="58" height="42" as="geometry" />
        </mxCell>
        <mxCell id="tdoXhxOALk2-wj0xU1d--128" value="&lt;div style=&quot;text-align: center;&quot;&gt;&lt;span style=&quot;background-color: initial; text-wrap: nowrap;&quot;&gt;&lt;b style=&quot;&quot;&gt;&lt;font color=&quot;#ffffff&quot;&gt;Linked&lt;/font&gt;&lt;/b&gt;&lt;/span&gt;&lt;/div&gt;" style="text;whiteSpace=wrap;html=1;fontSize=16;" parent="WIyWlLk6GJQsqaUBKTNV-1" vertex="1">
          <mxGeometry x="1442.9957142857147" y="305.9971428571429" width="58" height="42" as="geometry" />
        </mxCell>
        <mxCell id="tdoXhxOALk2-wj0xU1d--131" value="&lt;b style=&quot;forced-color-adjust: none; border-color: rgb(0, 0, 0); color: rgb(240, 240, 240); font-family: Helvetica; font-style: normal; font-variant-ligatures: normal; font-variant-caps: normal; letter-spacing: normal; orphans: 2; text-align: center; text-indent: 0px; text-transform: none; widows: 2; word-spacing: 0px; -webkit-text-stroke-width: 0px; white-space: nowrap; text-decoration-thickness: initial; text-decoration-style: initial; text-decoration-color: initial;&quot;&gt;&lt;font color=&quot;#ff3333&quot; style=&quot;forced-color-adjust: none; border-color: rgb(0, 0, 0);&quot;&gt;1...*&lt;/font&gt;&lt;/b&gt;" style="text;whiteSpace=wrap;html=1;fontSize=16;" parent="WIyWlLk6GJQsqaUBKTNV-1" vertex="1">
          <mxGeometry x="1333.9957142857147" y="514.9971428571429" width="58" height="42" as="geometry" />
        </mxCell>
        <mxCell id="tdoXhxOALk2-wj0xU1d--137" value="&lt;div style=&quot;text-align: center;&quot;&gt;&lt;span style=&quot;background-color: initial; text-wrap: nowrap;&quot;&gt;&lt;b style=&quot;&quot;&gt;&lt;font color=&quot;#ffffff&quot;&gt;Belongs_to&lt;/font&gt;&lt;/b&gt;&lt;/span&gt;&lt;/div&gt;" style="text;whiteSpace=wrap;html=1;fontSize=16;" parent="WIyWlLk6GJQsqaUBKTNV-1" vertex="1">
          <mxGeometry x="1738" y="962" width="101" height="42" as="geometry" />
        </mxCell>
        <mxCell id="tdoXhxOALk2-wj0xU1d--139" style="edgeStyle=orthogonalEdgeStyle;rounded=0;orthogonalLoop=1;jettySize=auto;html=1;entryX=0.5;entryY=0;entryDx=0;entryDy=0;strokeWidth=2;endArrow=none;endFill=0;strokeColor=#FF3333;" parent="WIyWlLk6GJQsqaUBKTNV-1" target="tdoXhxOALk2-wj0xU1d--43" edge="1" source="tdoXhxOALk2-wj0xU1d--62">
          <mxGeometry relative="1" as="geometry">
            <mxPoint x="1756" y="1115.5" as="sourcePoint" />
          </mxGeometry>
        </mxCell>
        <mxCell id="tdoXhxOALk2-wj0xU1d--140" value="&lt;b&gt;&lt;font style=&quot;font-size: 16px;&quot; color=&quot;#ff3333&quot;&gt;1...1&lt;/font&gt;&lt;/b&gt;" style="edgeLabel;html=1;align=center;verticalAlign=middle;resizable=0;points=[];fontSize=14;" parent="WIyWlLk6GJQsqaUBKTNV-1" vertex="1" connectable="0">
          <mxGeometry x="1559.9950816309115" y="735.9979835458105" as="geometry">
            <mxPoint x="-19" y="47" as="offset" />
          </mxGeometry>
        </mxCell>
        <mxCell id="tdoXhxOALk2-wj0xU1d--141" value="&lt;b style=&quot;forced-color-adjust: none; border-color: rgb(0, 0, 0); color: rgb(240, 240, 240); font-family: Helvetica; font-style: normal; font-variant-ligatures: normal; font-variant-caps: normal; letter-spacing: normal; orphans: 2; text-align: center; text-indent: 0px; text-transform: none; widows: 2; word-spacing: 0px; -webkit-text-stroke-width: 0px; white-space: nowrap; text-decoration-thickness: initial; text-decoration-style: initial; text-decoration-color: initial;&quot;&gt;&lt;font color=&quot;#ff3333&quot; style=&quot;forced-color-adjust: none; border-color: rgb(0, 0, 0);&quot;&gt;1...*&lt;/font&gt;&lt;/b&gt;" style="text;whiteSpace=wrap;html=1;fontSize=16;" parent="WIyWlLk6GJQsqaUBKTNV-1" vertex="1">
          <mxGeometry x="1648.9957142857147" y="649.997142857143" width="58" height="42" as="geometry" />
        </mxCell>
        <mxCell id="tdoXhxOALk2-wj0xU1d--142" value="&lt;div style=&quot;text-align: center;&quot;&gt;&lt;span style=&quot;background-color: initial; text-wrap: nowrap;&quot;&gt;&lt;b style=&quot;&quot;&gt;&lt;font color=&quot;#ffffff&quot;&gt;Has&lt;/font&gt;&lt;/b&gt;&lt;/span&gt;&lt;/div&gt;" style="text;whiteSpace=wrap;html=1;fontSize=16;" parent="WIyWlLk6GJQsqaUBKTNV-1" vertex="1">
          <mxGeometry x="1563.9957142857147" y="1077.997142857143" width="58" height="42" as="geometry" />
        </mxCell>
        <mxCell id="tdoXhxOALk2-wj0xU1d--144" value="&lt;b&gt;&lt;font style=&quot;font-size: 16px;&quot; color=&quot;#ff3333&quot;&gt;0...1&lt;/font&gt;&lt;/b&gt;" style="edgeLabel;html=1;align=center;verticalAlign=middle;resizable=0;points=[];fontSize=14;" parent="WIyWlLk6GJQsqaUBKTNV-1" vertex="1" connectable="0">
          <mxGeometry x="1411.9950816309115" y="760.9979835458105" as="geometry">
            <mxPoint x="-19" y="47" as="offset" />
          </mxGeometry>
        </mxCell>
        <mxCell id="tdoXhxOALk2-wj0xU1d--145" value="&lt;b style=&quot;forced-color-adjust: none; border-color: rgb(0, 0, 0); color: rgb(240, 240, 240); font-family: Helvetica; font-style: normal; font-variant-ligatures: normal; font-variant-caps: normal; letter-spacing: normal; orphans: 2; text-align: center; text-indent: 0px; text-transform: none; widows: 2; word-spacing: 0px; -webkit-text-stroke-width: 0px; white-space: nowrap; text-decoration-thickness: initial; text-decoration-style: initial; text-decoration-color: initial;&quot;&gt;&lt;font color=&quot;#ff3333&quot; style=&quot;forced-color-adjust: none; border-color: rgb(0, 0, 0);&quot;&gt;0...1&lt;/font&gt;&lt;/b&gt;" style="text;whiteSpace=wrap;html=1;fontSize=16;" parent="WIyWlLk6GJQsqaUBKTNV-1" vertex="1">
          <mxGeometry x="1335.9957142857147" y="665.9971428571429" width="58" height="42" as="geometry" />
        </mxCell>
        <mxCell id="tdoXhxOALk2-wj0xU1d--146" value="&lt;b style=&quot;forced-color-adjust: none; border-color: rgb(0, 0, 0); font-family: Helvetica; font-style: normal; font-variant-ligatures: normal; font-variant-caps: normal; letter-spacing: normal; orphans: 2; text-align: center; text-indent: 0px; text-transform: none; widows: 2; word-spacing: 0px; -webkit-text-stroke-width: 0px; white-space: nowrap; text-decoration-thickness: initial; text-decoration-style: initial; text-decoration-color: initial;&quot;&gt;&lt;font color=&quot;#ffffff&quot; style=&quot;forced-color-adjust: none; border-color: rgb(0, 0, 0);&quot;&gt;Serves&lt;/font&gt;&lt;/b&gt;" style="text;whiteSpace=wrap;html=1;fontSize=16;" parent="WIyWlLk6GJQsqaUBKTNV-1" vertex="1">
          <mxGeometry x="1290.9957142857147" y="943.997142857143" width="58" height="42" as="geometry" />
        </mxCell>
        <mxCell id="tdoXhxOALk2-wj0xU1d--147" style="edgeStyle=orthogonalEdgeStyle;rounded=0;orthogonalLoop=1;jettySize=auto;html=1;exitX=1;exitY=0.5;exitDx=0;exitDy=0;entryX=0;entryY=0.5;entryDx=0;entryDy=0;strokeWidth=2;endArrow=none;endFill=0;strokeColor=#FF3333;" parent="WIyWlLk6GJQsqaUBKTNV-1" source="tdoXhxOALk2-wj0xU1d--30" target="tdoXhxOALk2-wj0xU1d--37" edge="1">
          <mxGeometry relative="1" as="geometry" />
        </mxCell>
        <mxCell id="tdoXhxOALk2-wj0xU1d--150" value="&lt;b&gt;&lt;font style=&quot;font-size: 16px;&quot; color=&quot;#ff3333&quot;&gt;0...1&lt;/font&gt;&lt;/b&gt;" style="edgeLabel;html=1;align=center;verticalAlign=middle;resizable=0;points=[];fontSize=14;" parent="WIyWlLk6GJQsqaUBKTNV-1" vertex="1" connectable="0">
          <mxGeometry x="1253.9950816309115" y="817.9979835458105" as="geometry">
            <mxPoint x="-19" y="47" as="offset" />
          </mxGeometry>
        </mxCell>
        <mxCell id="tdoXhxOALk2-wj0xU1d--152" value="&lt;div style=&quot;text-align: center;&quot;&gt;&lt;span style=&quot;background-color: initial; text-wrap: nowrap;&quot;&gt;&lt;font color=&quot;#ff3333&quot;&gt;&lt;b&gt;1...1&lt;/b&gt;&lt;/font&gt;&lt;/span&gt;&lt;/div&gt;" style="text;whiteSpace=wrap;html=1;fontSize=16;" parent="WIyWlLk6GJQsqaUBKTNV-1" vertex="1">
          <mxGeometry x="896.9957142857147" y="1007.997142857143" width="58" height="42" as="geometry" />
        </mxCell>
        <mxCell id="tdoXhxOALk2-wj0xU1d--153" value="&lt;div style=&quot;text-align: center;&quot;&gt;&lt;span style=&quot;background-color: initial; text-wrap: nowrap;&quot;&gt;&lt;font color=&quot;#ffffff&quot;&gt;&lt;b&gt;Reserves&lt;/b&gt;&lt;/font&gt;&lt;/span&gt;&lt;/div&gt;" style="text;whiteSpace=wrap;html=1;fontSize=16;" parent="WIyWlLk6GJQsqaUBKTNV-1" vertex="1">
          <mxGeometry x="1001" y="1230" width="85" height="42" as="geometry" />
        </mxCell>
        <mxCell id="tdoXhxOALk2-wj0xU1d--155" value="&lt;div style=&quot;text-align: center;&quot;&gt;&lt;font color=&quot;#ff3333&quot;&gt;&lt;span style=&quot;text-wrap: nowrap;&quot;&gt;&lt;b&gt;0...1&lt;/b&gt;&lt;/span&gt;&lt;/font&gt;&lt;/div&gt;" style="text;whiteSpace=wrap;html=1;fontSize=16;" parent="WIyWlLk6GJQsqaUBKTNV-1" vertex="1">
          <mxGeometry x="805.9957142857147" y="860.9971428571429" width="58" height="42" as="geometry" />
        </mxCell>
        <mxCell id="tdoXhxOALk2-wj0xU1d--157" value="&lt;div style=&quot;text-align: center;&quot;&gt;&lt;span style=&quot;background-color: initial; text-wrap: nowrap;&quot;&gt;&lt;b style=&quot;&quot;&gt;&lt;font color=&quot;#ffffff&quot;&gt;Belongs_to&lt;/font&gt;&lt;/b&gt;&lt;/span&gt;&lt;/div&gt;" style="text;whiteSpace=wrap;html=1;fontSize=16;" parent="WIyWlLk6GJQsqaUBKTNV-1" vertex="1">
          <mxGeometry x="803" y="1025" width="101" height="42" as="geometry" />
        </mxCell>
        <mxCell id="EAchFctwd2gWHqzBgu2I-0" value="&lt;b&gt;&lt;font style=&quot;font-size: 16px;&quot; color=&quot;#ff3333&quot;&gt;1...1&lt;/font&gt;&lt;/b&gt;" style="edgeLabel;html=1;align=center;verticalAlign=middle;resizable=0;points=[];fontSize=14;" parent="WIyWlLk6GJQsqaUBKTNV-1" vertex="1" connectable="0">
          <mxGeometry x="853.4950816309115" y="943.9979835458105" as="geometry">
            <mxPoint x="-19" y="47" as="offset" />
          </mxGeometry>
        </mxCell>
        <mxCell id="781rqBfedugUcJ3Brvml-6" style="edgeStyle=orthogonalEdgeStyle;rounded=0;orthogonalLoop=1;jettySize=auto;html=1;exitX=0.5;exitY=1;exitDx=0;exitDy=0;exitPerimeter=0;strokeWidth=2;endArrow=none;endFill=0;strokeColor=#FFFFFF;" parent="WIyWlLk6GJQsqaUBKTNV-1" source="781rqBfedugUcJ3Brvml-4" target="tdoXhxOALk2-wj0xU1d--10" edge="1">
          <mxGeometry relative="1" as="geometry" />
        </mxCell>
        <mxCell id="781rqBfedugUcJ3Brvml-4" value="" style="verticalLabelPosition=bottom;verticalAlign=top;html=1;shape=mxgraph.basic.acute_triangle;dx=0.5;strokeWidth=2;fontSize=14;" parent="WIyWlLk6GJQsqaUBKTNV-1" vertex="1">
          <mxGeometry x="295" y="981" width="72" height="31" as="geometry" />
        </mxCell>
        <mxCell id="781rqBfedugUcJ3Brvml-5" style="edgeStyle=orthogonalEdgeStyle;rounded=0;orthogonalLoop=1;jettySize=auto;html=1;entryX=0;entryY=0;entryDx=36;entryDy=0;entryPerimeter=0;strokeWidth=2;endArrow=none;endFill=0;strokeColor=#FFFFFF;" parent="WIyWlLk6GJQsqaUBKTNV-1" source="tdoXhxOALk2-wj0xU1d--27" target="781rqBfedugUcJ3Brvml-4" edge="1">
          <mxGeometry relative="1" as="geometry" />
        </mxCell>
        <mxCell id="781rqBfedugUcJ3Brvml-8" value="..." style="text;html=1;align=center;verticalAlign=middle;resizable=0;points=[];autosize=1;strokeColor=none;fillColor=none;" parent="WIyWlLk6GJQsqaUBKTNV-1" vertex="1">
          <mxGeometry x="1231" y="666" width="28" height="26" as="geometry" />
        </mxCell>
        <mxCell id="781rqBfedugUcJ3Brvml-9" value="&lt;b style=&quot;forced-color-adjust: none; border-color: rgb(0, 0, 0); font-family: Helvetica; font-style: normal; font-variant-ligatures: normal; font-variant-caps: normal; letter-spacing: normal; orphans: 2; text-align: center; text-indent: 0px; text-transform: none; widows: 2; word-spacing: 0px; -webkit-text-stroke-width: 0px; white-space: nowrap; text-decoration-thickness: initial; text-decoration-style: initial; text-decoration-color: initial;&quot;&gt;&lt;font color=&quot;#ffffff&quot; style=&quot;forced-color-adjust: none; border-color: rgb(0, 0, 0);&quot;&gt;has&lt;/font&gt;&lt;/b&gt;" style="text;whiteSpace=wrap;html=1;fontSize=16;" parent="WIyWlLk6GJQsqaUBKTNV-1" vertex="1">
          <mxGeometry x="913.9957142857147" y="456.997142857143" width="58" height="42" as="geometry" />
        </mxCell>
        <mxCell id="781rqBfedugUcJ3Brvml-12" value="&lt;b style=&quot;forced-color-adjust: none; border-color: rgb(0, 0, 0); font-family: Helvetica; font-style: normal; font-variant-ligatures: normal; font-variant-caps: normal; letter-spacing: normal; orphans: 2; text-align: center; text-indent: 0px; text-transform: none; widows: 2; word-spacing: 0px; -webkit-text-stroke-width: 0px; white-space: nowrap; text-decoration-thickness: initial; text-decoration-style: initial; text-decoration-color: initial;&quot;&gt;&lt;font color=&quot;#ffffff&quot; style=&quot;forced-color-adjust: none; border-color: rgb(0, 0, 0);&quot;&gt;manager&lt;/font&gt;&lt;/b&gt;" style="text;whiteSpace=wrap;html=1;fontSize=16;" parent="WIyWlLk6GJQsqaUBKTNV-1" vertex="1">
          <mxGeometry x="630.9957142857147" y="190.997142857143" width="58" height="42" as="geometry" />
        </mxCell>
        <mxCell id="781rqBfedugUcJ3Brvml-13" value="&lt;div style=&quot;text-align: center;&quot;&gt;&lt;font color=&quot;#ff3333&quot;&gt;&lt;span style=&quot;text-wrap: nowrap;&quot;&gt;&lt;b&gt;*&lt;/b&gt;&lt;/span&gt;&lt;/font&gt;&lt;/div&gt;" style="text;whiteSpace=wrap;html=1;fontSize=16;" parent="WIyWlLk6GJQsqaUBKTNV-1" vertex="1">
          <mxGeometry x="1264.9957142857147" y="354.9957142857145" width="58" height="42" as="geometry" />
        </mxCell>
        <mxCell id="781rqBfedugUcJ3Brvml-15" value="&lt;b style=&quot;forced-color-adjust: none; border-color: rgb(0, 0, 0); font-family: Helvetica; font-style: normal; font-variant-ligatures: normal; font-variant-caps: normal; letter-spacing: normal; orphans: 2; text-align: center; text-indent: 0px; text-transform: none; widows: 2; word-spacing: 0px; -webkit-text-stroke-width: 0px; white-space: nowrap; text-decoration-thickness: initial; text-decoration-style: initial; text-decoration-color: initial;&quot;&gt;&lt;font color=&quot;#ffffff&quot; style=&quot;forced-color-adjust: none; border-color: rgb(0, 0, 0);&quot;&gt;manager&lt;/font&gt;&lt;/b&gt;" style="text;whiteSpace=wrap;html=1;fontSize=16;" parent="WIyWlLk6GJQsqaUBKTNV-1" vertex="1">
          <mxGeometry x="576.9957142857147" y="1513.997142857143" width="58" height="42" as="geometry" />
        </mxCell>
        <mxCell id="781rqBfedugUcJ3Brvml-17" value="&lt;div style=&quot;text-align: center;&quot;&gt;&lt;font color=&quot;#ff3333&quot;&gt;&lt;span style=&quot;text-wrap: nowrap;&quot;&gt;&lt;b&gt;0..1&lt;/b&gt;&lt;/span&gt;&lt;/font&gt;&lt;/div&gt;" style="text;whiteSpace=wrap;html=1;fontSize=16;" parent="WIyWlLk6GJQsqaUBKTNV-1" vertex="1">
          <mxGeometry x="250.9957142857147" y="1232.997142857143" width="58" height="42" as="geometry" />
        </mxCell>
        <mxCell id="781rqBfedugUcJ3Brvml-20" value="employee" style="swimlane;fontStyle=3;align=center;verticalAlign=top;childLayout=stackLayout;horizontal=1;startSize=26;horizontalStack=0;resizeParent=1;resizeLast=0;collapsible=1;marginBottom=0;rounded=0;shadow=0;strokeWidth=1;fillColor=#FFDC2E;fontColor=#000000;fontSize=14;" parent="WIyWlLk6GJQsqaUBKTNV-1" vertex="1">
          <mxGeometry x="-72" y="765" width="160" height="165" as="geometry">
            <mxRectangle x="230" y="140" width="160" height="26" as="alternateBounds" />
          </mxGeometry>
        </mxCell>
        <mxCell id="781rqBfedugUcJ3Brvml-25" value="Email" style="text;align=left;verticalAlign=top;spacingLeft=4;spacingRight=4;overflow=hidden;rotatable=0;points=[[0,0.5],[1,0.5]];portConstraint=eastwest;fontStyle=1;fontSize=14;" parent="781rqBfedugUcJ3Brvml-20" vertex="1">
          <mxGeometry y="26" width="160" height="35" as="geometry" />
        </mxCell>
        <mxCell id="781rqBfedugUcJ3Brvml-26" value="Phone Number" style="text;align=left;verticalAlign=top;spacingLeft=4;spacingRight=4;overflow=hidden;rotatable=0;points=[[0,0.5],[1,0.5]];portConstraint=eastwest;fontStyle=1;fontSize=14;" parent="781rqBfedugUcJ3Brvml-20" vertex="1">
          <mxGeometry y="61" width="160" height="35" as="geometry" />
        </mxCell>
        <mxCell id="781rqBfedugUcJ3Brvml-27" value="Address" style="text;align=left;verticalAlign=top;spacingLeft=4;spacingRight=4;overflow=hidden;rotatable=0;points=[[0,0.5],[1,0.5]];portConstraint=eastwest;fontStyle=1;fontSize=14;" parent="781rqBfedugUcJ3Brvml-20" vertex="1">
          <mxGeometry y="96" width="160" height="35" as="geometry" />
        </mxCell>
        <mxCell id="781rqBfedugUcJ3Brvml-22" value="" style="line;html=1;strokeWidth=1;align=left;verticalAlign=middle;spacingTop=-1;spacingLeft=3;spacingRight=3;rotatable=0;labelPosition=right;points=[];portConstraint=eastwest;fontStyle=1;fontSize=14;" parent="781rqBfedugUcJ3Brvml-20" vertex="1">
          <mxGeometry y="131" width="160" height="8" as="geometry" />
        </mxCell>
        <mxCell id="781rqBfedugUcJ3Brvml-23" value="                  ......" style="text;align=left;verticalAlign=top;spacingLeft=4;spacingRight=4;overflow=hidden;rotatable=0;points=[[0,0.5],[1,0.5]];portConstraint=eastwest;fontStyle=1;fontSize=14;" parent="781rqBfedugUcJ3Brvml-20" vertex="1">
          <mxGeometry y="139" width="160" height="26" as="geometry" />
        </mxCell>
      </root>
    </mxGraphModel>
  </diagram>
</mxfile>
